# xmcd
#
# Track frame offsets:
#	150
#	20679
#	34926
#	54898
#	70024
#	87176
#	105886
#	122865
#	137776
#	153135
#	158309
#	167518
#	186348
#
# Disc length: 2704 seconds
#
# Revision: 1
# Processed by: cddbd v1.5.2PL0 Copyright (c) Steve Scherf et al.
# Submitted via: audiograbber 1.83.01
#
DISCID=960a8e0d
DTITLE=The Ginn Sisters - Generally Happy
DYEAR=2003
DGENRE=
TTITLE0=Insignificant
TTITLE1=Hugo
TTITLE2=Blue Monday
TTITLE3=Ramblin' Ones
TTITLE4=Another Sleepless Night
TTITLE5=Glare Of Contempt
TTITLE6=So Long Gone
TTITLE7=Advice Of The Bartender To The Urban Cowboy Blues
TTITLE8=String 'Em Along
TTITLE9=10 lb Bag
TTITLE10=Faded Love
TTITLE11=Into You
TTITLE12=Here's Hopin'
EXTD=
EXTT0=
EXTT1=
EXTT2=
EXTT3=
EXTT4=
EXTT5=
EXTT6=
EXTT7=
EXTT8=
EXTT9=
EXTT10=
EXTT11=
EXTT12=
PLAYORDER=
